<?xml version="1.0" encoding="utf-8"?>
<!-- Generator: Adobe Illustrator 25.0.0, SVG Export Plug-In . SVG Version: 6.00 Build 0)  -->
<svg version="1.1" id="Layer_1" xmlns="http://www.w3.org/2000/svg" xmlns:xlink="http://www.w3.org/1999/xlink" x="0px" y="0px"
	 viewBox="0 0 24 24" style="enable-background:new 0 0 24 24;" xml:space="preserve">
<path d="M23.57,6.12c-0.74-3.62-4.26-5.43-7.51-4.57c-1.34,0.36-2.43,1.13-3.32,2.18C12.47,4.04,12.23,4.38,12,4.75
	c-0.03-0.04-0.05-0.07-0.06-0.1c-0.35-0.57-0.77-1.1-1.26-1.55C9.04,1.59,7.12,1.02,4.94,1.49c-2.67,0.59-4.55,2.9-4.62,5.63
	C0.3,7.9,0.34,8.67,0.45,9.43c0.16,1.05,0.47,2.05,0.99,2.98c0.55,0.99,1.29,1.85,2.08,2.65c1.02,1.03,2.12,1.97,3.22,2.92
	c1.76,1.52,3.5,3.05,5.18,4.65c0.06,0.06,0.09,0.06,0.15,0c0.7-0.67,1.41-1.32,2.12-1.96c1.58-1.42,3.21-2.79,4.79-4.2
	c0.88-0.79,1.74-1.6,2.5-2.51c0.83-0.99,1.46-2.08,1.81-3.33c0.25-0.88,0.35-1.79,0.38-2.7C23.7,7.32,23.69,6.71,23.57,6.12z
	 M17.98,12.83c-0.66,0.03-1.31,0.02-1.97,0c-0.41-0.01-0.75-0.3-0.83-0.7c-0.18-0.6-0.38-1.19-0.58-1.79c-0.05,0-0.09,0-0.13,0
	c-0.23,0.66-0.46,1.32-0.68,1.98c-0.44,1.31-0.88,2.62-1.31,3.93c-0.15,0.45-0.36,0.85-0.9,0.83s-0.72-0.41-0.87-0.87
	c-0.44-1.42-0.9-2.84-1.36-4.25c-0.05-0.15-0.1-0.29-0.19-0.54c-0.15,0.32-0.28,0.55-0.37,0.79c-0.13,0.38-0.5,0.63-0.9,0.61
	c-0.6,0-1.21,0.02-1.81,0c-0.47,0.02-0.86-0.35-0.87-0.81c0,0,0,0,0-0.01c0.02-0.47,0.4-0.83,0.86-0.83c0.02,0,0.04,0,0.05,0
	c1.17,0.28,1.75-0.34,2.1-1.35c0.08-0.28,0.23-0.53,0.42-0.74c0.21-0.2,0.55-0.47,0.77-0.42c0.33,0.1,0.59,0.33,0.74,0.63
	c0.45,1.23,0.81,2.49,1.21,3.74c0.07,0.22,0.15,0.43,0.27,0.75c0.15-0.42,0.27-0.73,0.37-1.04c0.56-1.66,1.13-3.32,1.67-4.99
	c0.15-0.46,0.36-0.84,0.89-0.83c0.5,0.01,0.71,0.38,0.85,0.82c0.32,0.99,0.69,1.97,1,2.97c0.11,0.34,0.26,0.5,0.63,0.46
	c0.3-0.03,0.6-0.03,0.9,0c0.45,0.01,0.81,0.37,0.82,0.82C18.79,12.46,18.43,12.82,17.98,12.83z"/>
</svg>
