<?xml version="1.0" encoding="utf-8"?>
<!-- Generator: Adobe Illustrator 25.0.0, SVG Export Plug-In . SVG Version: 6.00 Build 0)  -->
<svg version="1.1" id="Layer_1" xmlns="http://www.w3.org/2000/svg" xmlns:xlink="http://www.w3.org/1999/xlink" x="0px" y="0px"
	 viewBox="0 0 24 24" style="enable-background:new 0 0 24 24;" xml:space="preserve">
<g>
	<path d="M12.79,5.86C9.81,5.53,7.07,7.23,6.09,10c-0.97,2.74,0.06,5.81,2.51,7.37c0.59,0.37,1.27,0.62,0.91,1.55
		c1.67,0,3.26,0,4.9,0c0.01-0.11,0.03-0.19,0.02-0.26c-0.09-0.54,0.14-0.82,0.63-1.08c2.27-1.22,3.52-3.76,3.18-6.31
		C17.87,8.46,15.56,6.16,12.79,5.86z"/>
	<path d="M9.63,21.4c0.39,0.33,0.78,0.66,1.26,1.08c0.05,0.72,0.41,1.17,1.04,1.18c0.72,0.02,1.12-0.45,1.17-1.33
		c0.79-0.32,1-0.52,1.14-1.07c-1.51,0-3.01,0-4.51,0C9.69,21.3,9.66,21.35,9.63,21.4z"/>
	<path d="M9.59,20.67c1.62,0,3.22,0,4.82,0c0-0.36,0-0.68,0-1.02c-1.62,0-3.22,0-4.82,0C9.59,20.01,9.59,20.33,9.59,20.67z"/>
	<path d="M6.29,6.53c0.15-0.07,0.23-0.28,0.33-0.42C6.54,5.93,6.51,5.79,6.42,5.7c-0.65-0.67-1.3-1.34-1.99-1.97
		C4.31,3.62,3.9,3.65,3.8,3.77C3.67,3.92,3.61,4.32,3.72,4.44c0.64,0.72,1.33,1.4,2.04,2.06C5.86,6.6,6.14,6.6,6.29,6.53z"/>
	<path d="M12.02,4.14c0.36,0,0.55-0.25,0.55-0.62c0-0.43,0-0.85,0-1.28c0-0.43,0.01-0.85,0-1.28C12.55,0.6,12.39,0.34,12,0.34
		c-0.38,0-0.54,0.26-0.54,0.62c0,0.85,0,1.7,0,2.56C11.46,3.9,11.66,4.14,12.02,4.14z"/>
	<path d="M3.58,11.47c-0.9-0.02-1.79-0.01-2.69,0c-0.34,0.01-0.56,0.21-0.55,0.56c0,0.36,0.22,0.53,0.56,0.53
		c0.44,0.01,0.88,0,1.32,0c0.44,0,0.88,0,1.32,0c0.35,0,0.57-0.19,0.58-0.53C4.14,11.68,3.92,11.47,3.58,11.47z"/>
	<path d="M23.03,11.46c-0.82,0-1.64,0-2.46,0c-0.38,0-0.67,0.15-0.68,0.55s0.27,0.56,0.66,0.56c0.41-0.01,0.82,0,1.23,0
		c0.41,0,0.82,0,1.23,0c0.39,0,0.65-0.17,0.65-0.57C23.66,11.61,23.39,11.46,23.03,11.46z"/>
	<path d="M20.29,4.44c0.08-0.18,0.05-0.51-0.07-0.64c-0.12-0.12-0.52-0.17-0.63-0.07c-0.71,0.65-1.39,1.33-2.05,2.04
		c-0.11,0.11-0.09,0.41-0.03,0.58c0.05,0.13,0.26,0.21,0.43,0.33c0.19-0.13,0.37-0.21,0.5-0.34c0.44-0.42,0.86-0.85,1.29-1.28
		C19.93,4.86,20.18,4.68,20.29,4.44z"/>
</g>
</svg>
